<svg xmlns="http://www.w3.org/2000/svg" viewBox="0 0 1532.39 571.2"><defs><style>.cls-1,.cls-2,.cls-4,.cls-5{isolation:isolate;}.cls-1,.cls-2{font-size:48.69px;font-family:GurmukhiSangamMN, Gurmukhi Sangam MN;}.cls-1{fill:#707377;}.cls-2{fill:none;stroke:#707377;stroke-miterlimit:10;}.cls-3{fill:#fe0000;}.cls-4{font-size:226.68px;}.cls-4,.cls-5,.cls-6{fill:#1e579b;}.cls-4,.cls-5{font-family:Impact;}.cls-5{font-size:343.27px;}</style></defs><g id="Capa_2" data-name="Capa 2"><g id="Layer_1" data-name="Layer 1"><text class="cls-1" transform="translate(0.5 468.04) scale(0.94 1)">Especialistas en Transporte Pesado</text><text class="cls-2" transform="translate(0.5 468.04) scale(0.94 1)">Especialistas en Transporte Pesado</text><path class="cls-3" d="M720.69,440.9c0,36.9,16,66.9,35.8,66.9h36.6c5.2,5.3,11.1,8.4,17.4,8.4h55.1c12.9,0,24.2-12.8,30.5-31.8-7.6-.2-15.2-.5-22.9-.6-10-.2-18.7-8.4-18.6-18.6.2-27.6,2.6-55.7-3.5-82.7H829c-5.2-5.3-11.1-8.4-17.4-8.4h-55.1C736.69,374,720.69,403.9,720.69,440.9Zm62.5,8.4c0-29.9,12.2-54.1,27.3-54.1s27.3,24.2,27.3,54.1-12.2,54.1-27.3,54.1S783.19,479.2,783.19,449.3Zm-54-8.4c0-29.9,12.2-54.1,27.3-54.1,10.1,0,18.9,10.9,23.6,27a111.15,111.15,0,0,0-5.5,35.5,114.92,114.92,0,0,0,2.9,26.2c-5,11.9-12.5,19.5-21,19.5C741.39,494.9,729.19,470.7,729.19,440.9Z"/><rect class="cls-3" x="1384.79" y="208.5" width="11.6" height="59.7"/><polygon class="cls-3" points="1396.39 208.5 1403.89 216 1403.89 268.2 1396.39 268.2 1396.39 208.5"/><polygon class="cls-3" points="1368.39 182.9 1395.39 274.6 1384.69 274.6 1355.89 182.9 1368.39 182.9"/><path class="cls-3" d="M1128.69,374.9h36.4a665.88,665.88,0,0,0,56.4,65.8v69.9h-34.6a127.08,127.08,0,0,0,2.1-22.8c0-35.4-14.1-64.1-31.5-64.1s-31.5,28.7-31.5,64.1a127.08,127.08,0,0,0,2.1,22.8h-21.4l-13.8-22.8V433.2A216.88,216.88,0,0,0,1128.69,374.9Z"/><path class="cls-3" d="M1464.19,491c-6.1,32.5-22.6,55.8-42.1,55.8s-36-23.3-42.1-55.8Z"/><path class="cls-3" d="M1492.79,491c-6.1,32.5-22.6,55.8-42.1,55.8h-28.6V527.4c-6.1-9.6-10.9-22.1-13.6-36.5h84.3Z"/><path class="cls-3" d="M1343.39,250.3l-.6-3.1c3,3.7,5.9,7.2,8.5,10.3l-2.8-2.6Z"/><polygon class="cls-3" points="880.99 402.6 973.89 406.1 962.69 118.4 952.69 388.4 880.99 402.6"/><path class="cls-3" d="M1499.09,415.1a142.33,142.33,0,0,1-1.3,14.9l-7.3-5.6Z"/><polygon class="cls-3" points="1330.19 186.4 1352.19 187.8 1362.79 239.3 1441.49 311.6 1410.09 311.6 1362.09 267.5 1364.39 266 1338.19 225.3 1330.19 186.4"/><path class="cls-3" d="M861.49,381.8V25.3l77.6-20.6h34.5C986.49.8,994.89,0,999.39,0a20.48,20.48,0,0,1,4.1.3c63.2,1.6,221.1,33.2,221.1,33.2,68.4,23,102,75.9,113.2,97.3-7.7-1.5-16.8-3.1-27.4-4.8-14.5-22.1-43.1-55.4-91.3-72-15.5-3.1-158.6-31.1-216.2-32.5l-.9.6-2.6-.9h-.1c-2.2,0-8.4.4-19.6,3.8l-3,.9h-34.9l-59.1,15.7V403.1h-21.8v65.2l223.7,19.1c.7-78.7,33.2-117.3,34.7-119l6.4-7.4,9.8.1c24.2.2,44.7,8.8,61,25.6,27.4,28.2,34.9,73.1,37,98.3,22.4,2.9,51.8,4.4,87.7,4.4,72.9,0,153.8-6.2,189.9-9.4V440.4l-2.3-1.8-8.8-6.7a144,144,0,0,1,22.1-9.9h0l10.3,7.9v69.5s-112,11.2-211.2,11.2c-41.3,0-80.4-2-108.2-7.5,0,0,2.5-120.2-77.6-120.9,0,0-35.1,40.6-28.8,128.3l-267-22.8V381.8Z"/><path class="cls-3" d="M1505.69,367.2c1.4,1.4,2.8,2.9,4.2,4.6C1508.39,370,1507,368.5,1505.69,367.2Z"/><path class="cls-3" d="M1207.49,178.6l55.6,3.6,21.5,74c-7.2-.2-14.4-.3-21.3-.4Z"/><path class="cls-3" d="M1352.39,258.8c-16.8-1-34.9-1.8-52.9-2.3l-21.4-73.4,14.4.9C1306.69,202.2,1335.59,238.9,1352.39,258.8Z"/><path class="cls-3" d="M1312.49,185.3l49.6,3.2,21.7,72.9c-7.4-.8-15.4-1.4-23.7-2Z"/><path class="cls-3" d="M1143.29,157.9l6.7,17,15.1,1,67.7,79.7c-32.7-.1-56.1.2-56.1.2-35.4,1.8-41.3-13.4-41.3-13.4l-19.6-86.6Z"/><path class="cls-3" d="M1177.29,176.4l10.2.9,65.9,78.4c-5.4-.1-7-.1-12.1-.1Z"/><path class="cls-3" d="M1152,113.4v14.2h-5.4l13.3,33.8,203,13-9.8-26c-23.7-5.2-103.4-20.8-201.1-20.8V113.4h0c119.8,0,211.7,22.8,211.7,22.8l20.2,53.7-233.9-15-24.1-61.2Q1139.09,113.4,1152,113.4Z"/><path class="cls-3" d="M1320.19,427.8s0-20.2-11.7-32.2c-19.3-11.7-53.2-25.7-61.9-19.1s-1.2,38.9,5,40.2S1288.39,422.8,1320.19,427.8Z"/><path class="cls-3" d="M1035.09,319s222.8,24,280.1,74.6c0,0-28.5-61.5-184.4-80.5C1130.69,313.1,1078.29,309.8,1035.09,319Z"/><polygon class="cls-3" points="675.09 105.4 840.09 32.7 876.09 21.9 876.09 73.3 675.09 105.4"/><polygon class="cls-3" points="1064.49 251 1090.99 283 1085.59 287.5 1055.29 251 1064.49 251"/><path class="cls-3" d="M1101.49,267.5v27.6a1.16,1.16,0,0,1-1.2,1.2,28.8,28.8,0,0,1-4.1-.6c-17.6-3.6-14.5-29.8,3.5-29.4h.7A1.28,1.28,0,0,1,1101.49,267.5Z"/><path class="cls-3" d="M934.69,81.3s2.8-41.9,34.8-48.2,63.8,22.7,78,48.2C1047.49,81.3,975.79-2.4,934.69,81.3Z"/><path class="cls-3" d="M1115.79,487.8c0,46,20,83.4,44.7,83.4h28.6c24.7,0,44.7-37.3,44.7-83.4s-20-83.4-44.7-83.4h-28.6C1135.79,404.4,1115.79,441.7,1115.79,487.8Zm10.1,0c0-35.4,14.1-64.1,31.5-64.1s31.5,28.7,31.5,64.1-14.1,64.1-31.5,64.1S1125.89,523.2,1125.89,487.8Z"/><polygon class="cls-3" points="1149.99 174.9 1092.89 174.9 1092.89 127.4 1125.89 113.7 1149.99 174.9"/><polygon class="cls-3" points="895.39 432.8 1106.89 444.6 1113.09 435.7 919.49 420.7 895.39 432.8"/><path class="cls-3" d="M1047.49,185.6h16.9v60.3h-16.9V185.6m-5.3-5.3v71h27.5v-71Z"/><path class="cls-3" d="M1022.49,180.3v71l78.9,4-15.9-81.1Zm19.7,0h27.6l9,4.6v61.8l-9,4.6h-27.6Z"/><path class="cls-3" d="M1072.79,185.4l2.8,1.4v58l-2.8,1.4V185.4m-3.1-5.1v71l9-4.6V184.9l-9-4.6Z"/><path class="cls-3" d="M1383.79,261.3c33.4,6.8,76.9,24.4,106.7,40.4l-177.8-4.2s-73.5-31.3-162.7-41C1150,256.5,1288.39,241.9,1383.79,261.3Z"/><path class="cls-3" d="M1312.69,297.5s22,120.3,23.3,137.5c130.7,9.7,169.6-1.6,169.6-1.6,4.7-75.5-15.1-131.7-15.1-131.7C1402,282.2,1312.69,297.5,1312.69,297.5Zm37,80.5h140.7v7.1h-140.7Zm-4.1-28.5h140.7v7.1h-140.7Zm-4.2-28.6h140.7V328h-140.7Z"/><text class="cls-4" transform="translate(251.09 366.28)">Diese</text><text class="cls-5" transform="translate(779.02 365.7) scale(0.66 1)">l</text><path class="cls-6" d="M114.39,264.2H68a.1.1,0,0,1-.1-.1V233c0-9.1-.5-14.7-1.5-17s-3.2-3.4-6.6-3.4c-3.8,0-6.3,1.4-7.3,4.1S51,225.3,51,234.4v83.2c0,8.7.5,14.4,1.5,17s3.4,4,7,4,5.7-1.3,6.8-4,1.6-8.9,1.6-18.8V293.4a.1.1,0,0,1,.1-.1h46.4a.1.1,0,0,1,.1.1v6.9c0,18.5-1.3,31.7-3.9,39.5s-8.4,14.6-17.4,20.4-20,8.8-33.1,8.8c-13.7,0-24.9-2.5-33.8-7.4s-14.7-11.8-17.6-20.5-4.3-21.9-4.3-39.5V249.2c0-12.9.4-22.6,1.3-29.1a40.78,40.78,0,0,1,7.9-18.7,43.75,43.75,0,0,1,18.3-14.1c7.8-3.4,16.7-5.1,26.8-5.1,13.7,0,25.1,2.7,34,8s14.8,11.9,17.6,19.8,4.2,20.2,4.2,37l-.1,17.2Z"/><path class="cls-6" d="M131.19,186.3h0l33-.1c22,0,36.9.9,44.7,2.5s14.1,6,19,13,7.4,18.1,7.4,33.4c0,13.9-1.7,23.3-5.2,28.1s-10.3,7.7-20.5,8.6c9.2,2.3,15.4,5.4,18.6,9.2a27.22,27.22,0,0,1,5.9,10.6c.8,3.2,1.2,12,1.2,26.5v47.2a.1.1,0,0,1-.1.1h-43.1a.1.1,0,0,1-.1-.1V305.8c0-9.6-.8-15.5-2.3-17.8s-5.4-3.4-11.8-3.4a.1.1,0,0,0-.1.1v80.6a.1.1,0,0,1-.1.1h-46.4a.1.1,0,0,1-.1-.1Zm46.6,30.6v39.7a.1.1,0,0,0,.1.1c5.2,0,8.8-.7,10.9-2.2s3.2-6.1,3.2-14v-9.9c0-5.7-1-9.4-3-11.2s-5.8-2.5-11.2-2.5Z"/><path class="cls-3" d="M21.59,397.5h681.7S559.39,363.5,21.59,397.5Z"/></g></g></svg>